<?xml version="1.0" encoding="utf-8"?>
<!-- Generator: Adobe Illustrator 24.2.1, SVG Export Plug-In . SVG Version: 6.00 Build 0)  -->
<svg version="1.1" id="Camada_1" xmlns="http://www.w3.org/2000/svg" xmlns:xlink="http://www.w3.org/1999/xlink" x="0px" y="0px"
	 viewBox="0 0 64 64" style="enable-background:new 0 0 64 64;" xml:space="preserve">
<style type="text/css">
	.st0{opacity:0.3;}
	.st1{fill:#1C1C1C;}
</style>
<path class="st0" d="M63.9,51.88H38.22c-0.58,1.5-1.15,3.01-1.84,4.43H63.9V51.88z"/>
<g id="sa" class="st0">
	<g>
		<path class="st1" d="M21.5,14.56c-1.46-0.7-2.85-1.21-4.19-1.51c-1.37-0.31-2.78-0.46-4.19-0.45c-2.56,0-4.48,0.5-5.73,1.51
			s-1.89,2.31-1.89,3.92c0,1.46,0.49,2.6,1.47,3.43s2.83,1.65,5.54,2.45l2.26,0.68c3.12,0.96,5.49,2.24,7.13,3.85
			c1.63,1.61,2.45,3.7,2.45,6.26c0,3.02-1.13,5.51-3.39,7.47s-5.51,2.94-9.73,2.95c-2.26,0-4.35-0.19-6.26-0.57S1.41,43.63,0,42.93
			l1.36-4.15c1.39,0.72,2.86,1.26,4.38,1.62c1.56,0.38,3.27,0.57,5.13,0.57c2.57,0,4.56-0.49,6-1.47c1.43-0.98,2.15-2.43,2.15-4.34
			c0-1.61-0.57-2.88-1.7-3.81c-1.13-0.93-2.95-1.8-5.47-2.6l-2.41-0.75c-3.12-1-5.43-2.27-6.94-3.81c-1.51-1.54-2.26-3.49-2.26-5.85
			c0-1.46,0.3-2.79,0.91-4c0.61-1.21,1.49-2.27,2.56-3.09c1.11-0.85,2.4-1.52,3.89-2c1.48-0.48,3.13-0.72,4.94-0.72
			c1.74,0.01,3.49,0.16,5.21,0.45c1.74,0.28,3.44,0.79,5.05,1.51L21.5,14.56z"/>
		<path class="st1" d="M29.67,12.15c2.36-1.26,4.54-2.17,6.53-2.75c1.99-0.58,4.19-0.87,6.6-0.87c1.81,0,3.48,0.21,5.02,0.64
			c1.53,0.43,2.87,1.15,4,2.15c1.13,1.01,2.01,2.33,2.64,3.96c0.63,1.63,0.94,3.66,0.94,6.07v23.08h-4.07l-0.83-4.3h-0.15
			c-1.51,1.76-3.23,3.03-5.17,3.81c-1.94,0.78-4.06,1.17-6.37,1.17c-1.66,0-3.21-0.24-4.64-0.72c-1.43-0.48-2.67-1.17-3.7-2.07
			c-1.03-0.9-1.85-2-2.41-3.24c-0.58-1.26-0.87-2.67-0.87-4.23c0-1.86,0.38-3.49,1.13-4.9c0.75-1.41,1.82-2.59,3.21-3.54
			c1.38-0.96,3.04-1.67,4.98-2.15c1.94-0.48,4.09-0.72,6.45-0.71h7.17V20.9c0-3.02-0.7-5.12-2.11-6.3
			c-1.41-1.18-3.27-1.77-5.58-1.77c-1.41,0-3,0.21-4.79,0.64c-1.78,0.43-3.76,1.24-5.92,2.45L29.67,12.15z M50.12,27.39l-5.88,0.08
			c-4.18,0.1-7.14,0.83-8.9,2.19c-1.76,1.36-2.64,3.02-2.64,4.98c0,2.36,0.73,4.03,2.19,4.98c1.46,0.96,3.19,1.43,5.21,1.43
			c1.76,0,3.55-0.41,5.36-1.24s3.37-2.2,4.67-4.11L50.12,27.39z"/>
	</g>
</g>
</svg>
