<?xml version="1.0" encoding="utf-8"?>
<!-- Generator: Adobe Illustrator 24.2.1, SVG Export Plug-In . SVG Version: 6.00 Build 0)  -->
<svg version="1.1" id="Camada_1" xmlns="http://www.w3.org/2000/svg" xmlns:xlink="http://www.w3.org/1999/xlink" x="0px" y="0px"
	 viewBox="0 0 39.5 29.5" style="enable-background:new 0 0 39.5 29.5;" xml:space="preserve">
<style type="text/css">
	.st0{fill:#1C1C1C;}
	.st1{fill:#FFFFFF;stroke:#000000;stroke-miterlimit:10;}
</style>
<g>
	<path d="M39.5,26.8H23.6c-0.4,0.9-0.7,1.9-1.1,2.7h17V26.8z"/>
	<g id="sa">
		<g>
			<path class="st0" d="M13.3,3.7c-0.9-0.4-1.8-0.7-2.6-0.9C9.9,2.6,9,2.5,8.1,2.5c-1.6,0-2.8,0.3-3.5,0.9S3.4,4.9,3.4,5.9
				c0,0.9,0.3,1.6,0.9,2.1c0.6,0.5,1.7,1,3.4,1.5l1.4,0.4c1.9,0.6,3.4,1.4,4.4,2.4s1.5,2.3,1.5,3.9c0,1.9-0.7,3.4-2.1,4.6
				c-1.4,1.2-3.4,1.8-6,1.8c-1.4,0-2.7-0.1-3.9-0.3c-1.2-0.2-2.2-0.6-3.1-1l0.8-2.6c0.9,0.4,1.8,0.8,2.7,1c1,0.2,2,0.3,3.2,0.3
				c1.6,0,2.8-0.3,3.7-0.9c0.9-0.6,1.3-1.5,1.3-2.7c0-1-0.3-1.8-1-2.4C10,13.5,8.9,13,7.3,12.5L5.8,12c-1.9-0.6-3.4-1.4-4.3-2.4
				C0.6,8.7,0.1,7.5,0.1,6.1c0-0.9,0.2-1.7,0.6-2.5c0.4-0.7,0.9-1.4,1.6-1.9C3,1.2,3.8,0.7,4.7,0.4S6.6,0,7.7,0
				C8.8,0,9.9,0.1,11,0.3c1.1,0.2,2.1,0.5,3.1,0.9L13.3,3.7z"/>
			<path class="st0" d="M18.3,2.2c1.5-0.8,2.8-1.3,4-1.7C23.6,0.2,25,0,26.4,0c1.1,0,2.2,0.1,3.1,0.4c0.9,0.3,1.8,0.7,2.5,1.3
				c0.7,0.6,1.2,1.4,1.6,2.4s0.6,2.3,0.6,3.8v14.3h-2.5l-0.5-2.7h-0.1c-0.9,1.1-2,1.9-3.2,2.4c-1.2,0.5-2.5,0.7-3.9,0.7
				c-1,0-2-0.1-2.9-0.4c-0.9-0.3-1.6-0.7-2.3-1.3c-0.6-0.6-1.1-1.2-1.5-2c-0.4-0.8-0.5-1.6-0.5-2.6c0-1.1,0.2-2.2,0.7-3
				c0.5-0.9,1.1-1.6,2-2.2c0.9-0.6,1.9-1,3.1-1.3c1.2-0.3,2.5-0.4,4-0.4H31V7.6c0-1.9-0.4-3.2-1.3-3.9c-0.9-0.7-2-1.1-3.5-1.1
				c-0.9,0-1.9,0.1-3,0.4s-2.3,0.8-3.7,1.5L18.3,2.2z M31,11.7l-3.6,0c-2.6,0.1-4.4,0.5-5.5,1.4c-1.1,0.8-1.6,1.9-1.6,3.1
				c0,1.5,0.5,2.5,1.4,3.1c0.9,0.6,2,0.9,3.2,0.9c1.1,0,2.2-0.3,3.3-0.8c1.1-0.5,2.1-1.4,2.9-2.5L31,11.7z"/>
		</g>
	</g>
</g>
<rect x="-318.2" y="62.2" class="st1" width="50" height="50"/>
</svg>
